<?xml version="1.0"?>
<svg xmlns:rdf="http://www.w3.org/1999/02/22-rdf-syntax-ns#" xmlns="http://www.w3.org/2000/svg" xmlns:cc="http://web.resource.org/cc/" xmlns:dc="http://purl.org/dc/elements/1.1/" xmlns:svg="http://www.w3.org/2000/svg" id="svg2" viewBox="0 0 906 434" version="1.0">
  <path id="path2161" d="m354.43 397.47c-3.31-1.44-4.4-3.23-4.4-7.22 0-7.6 2.94-8.35 32.9-8.35 20.64-0.01 25.37 0.26 29.35 1.69 4.51 1.62 4.81 1.61 6.04-0.07 0.9-1.23 2.31-1.68 4.58-1.45l3.28 0.33 0.16 8 0.17 8-4.24 0.31c-3.3 0.24-4.24-0.04-4.24-1.25 0-1.92-1.71-1.94-5-0.06-3.53 2.02-53.98 2.08-58.6 0.07zm0.69-23.99c-3.97-1.39-5.4-4.38-4.48-9.32 1.08-5.76 3.62-6.26 31.61-6.26 20.34-0.01 25.05 0.27 29.03 1.69 4.51 1.62 4.81 1.61 6.04-0.07 0.91-1.25 2.33-1.68 4.76-1.45l3.45 0.33 0.17 6.5c0.1 3.58-0.05 7.29-0.31 8.25-0.64 2.26-6.19 2.37-7.8 0.15-1.07-1.46-1.63-1.45-6.62 0.03-4.41 1.31-9.88 1.59-28.94 1.49-15.35-0.09-24.68-0.56-26.91-1.34zm65.41-22.28c-1.1-0.26-2.54-1.16-3.2-2.01-1.08-1.39-1.61-1.38-5.27 0.08-3.41 1.37-8.46 1.63-30.98 1.63h-26.9l-2.17-2.75c-1.68-2.12-2.05-3.63-1.65-6.64 0.96-7.22 0.48-7.11 30.96-7.11 23.44 0 27.79 0.24 31.4 1.72 4.1 1.68 4.21 1.67 4.84-0.31 0.52-1.63 1.35-1.96 4.31-1.71l3.66 0.3 0.3 7.91c0.21 5.66-0.08 8.15-1 8.74-0.72 0.45-1.52 0.77-1.8 0.72-0.27-0.06-1.4-0.31-2.5-0.57zm-68.43-26.93c-2.59-3.3-2.66-8.42-0.16-11.51 1.91-2.36 1.95-2.36 28.4-2.68 25.44-0.31 26.65-0.24 30.69 1.82 4.42 2.26 7 2.08 7-0.47 0-1.12 1.08-1.53 4-1.53h4v17h-3.64c-2 0-4.14-0.65-4.75-1.44-0.96-1.25-1.64-1.25-5.11-0.01-3.08 1.09-10.24 1.42-31.18 1.44l-27.17 0.01-2.08-2.63zm-47.43-25.07c-0.35-0.35-0.64-3.91-0.64-7.91s-0.44-7.54-0.97-7.87c-0.54-0.34-40.48-0.83-88.75-1.09-98.54-0.55-95.95-0.38-126.68-8.11-35.554-8.93-54.169-21.89-47.052-32.75 1.49-2.27 8.583-8.38 24.47-21.07 12.774-10.2 14.638-11.41 19.13-12.45 2.86-0.66 105.27-1.01 298.49-1.03l294.13-0.02 1.64-2.5c1.43-2.19 9.7-12.79 22.62-29 2.19-2.75 8.6-10.89 14.23-18.09s13.84-17.61 18.24-23.13c7.99-10.01 29.22-37.136 33-42.161 1.1-1.462 6.3-8.048 11.56-14.638 5.26-6.589 13.34-16.931 17.95-22.981 4.62-6.05 8.91-11.45 9.54-12s4.22-5.05 7.97-10 8.41-10.687 10.36-12.75l3.53-3.75h15.79c10.24 0 15.8 0.365 15.8 1.037 0 0.57-0.87 4.732-1.93 9.25-2.4 10.185-12.78 55.734-17.6 77.213-3.6 16.08-4.22 18.79-8.88 39-1.39 6.05-4.13 18.37-6.08 27.39-1.95 9.01-4.69 20.89-6.08 26.4-2 7.89-2.27 10.19-1.27 10.81 0.7 0.43 11.03 0.54 22.95 0.24 27.99-0.71 25.86-2.37 25.84 20.11-0.02 15.88-0.11 16.59-2.4 19.31-2.94 3.49-10.27 5.84-21.05 6.73-9.87 0.82-185.14 20.38-221.5 24.72-26.37 3.15-26.8 3.17-89 3.73l-62.5 0.56-0.29 8.71-0.29 8.72h-81.82c-45.01 0-82.12-0.28-82.46-0.63z"/>
  <metadata>
    <rdf:RDF>
      <cc:Work>
        <dc:format>image/svg+xml</dc:format>
        <dc:type rdf:resource="http://purl.org/dc/dcmitype/StillImage"/>
        <cc:license rdf:resource="http://creativecommons.org/licenses/publicdomain/"/>
        <dc:publisher>
          <cc:Agent rdf:about="http://openclipart.org/">
            <dc:title>Openclipart</dc:title>
          </cc:Agent>
        </dc:publisher>
        <dc:title>bomber</dc:title>
        <dc:date>2007-08-25T18:58:50</dc:date>
        <dc:description>b&amp;w symbolic drawing of a bomber dropping bombs</dc:description>
        <dc:source>http://openclipart.org/detail/4982/bomber-by-laurent</dc:source>
        <dc:creator>
          <cc:Agent>
            <dc:title>laurent</dc:title>
          </cc:Agent>
        </dc:creator>
        <dc:subject>
          <rdf:Bag>
            <rdf:li>airplane</rdf:li>
            <rdf:li>aviation</rdf:li>
            <rdf:li>bomb</rdf:li>
            <rdf:li>bomber</rdf:li>
            <rdf:li>clip art</rdf:li>
            <rdf:li>clipart</rdf:li>
            <rdf:li>image</rdf:li>
            <rdf:li>media</rdf:li>
            <rdf:li>plane</rdf:li>
            <rdf:li>public domain</rdf:li>
            <rdf:li>sign</rdf:li>
            <rdf:li>svg</rdf:li>
          </rdf:Bag>
        </dc:subject>
      </cc:Work>
      <cc:License rdf:about="http://creativecommons.org/licenses/publicdomain/">
        <cc:permits rdf:resource="http://creativecommons.org/ns#Reproduction"/>
        <cc:permits rdf:resource="http://creativecommons.org/ns#Distribution"/>
        <cc:permits rdf:resource="http://creativecommons.org/ns#DerivativeWorks"/>
      </cc:License>
    </rdf:RDF>
  </metadata>
</svg>
